<svg width="140" height="140" viewBox="0 0 140 140" fill="none" xmlns="http://www.w3.org/2000/svg">
<path d="M118.592 102.999C119.233 100.864 119.583 98.595 119.583 96.25V43.75C119.583 37.5616 117.125 31.6267 112.749 27.2509C108.373 22.875 102.438 20.4167 96.25 20.4167H43.75C37.5616 20.4167 31.6267 22.875 27.2509 27.2509C22.875 31.6267 20.4167 37.5616 20.4167 43.75V96.6583C20.5238 102.776 23.0293 108.606 27.3936 112.894C31.7579 117.182 37.6317 119.584 43.75 119.583H96.25L96.9325 119.572M118.592 102.999L118.078 102.393L103.693 85.0325C102.602 83.7157 101.234 82.6549 99.6872 81.9254C98.1402 81.1958 96.4517 80.8154 94.7414 80.8109C93.031 80.8065 91.3405 81.1781 89.7898 81.8996C88.239 82.6211 86.8658 83.6747 85.7675 84.9859L78.1142 94.1209L76.8659 95.6433M118.592 102.999C117.177 107.685 114.324 111.802 110.437 114.777C106.55 117.752 101.825 119.429 96.9325 119.572M76.8659 95.6433L96.39 118.953L96.9325 119.572M76.8659 95.6433L58.0417 73.1675C56.9467 71.8606 55.5785 70.8096 54.0335 70.0885C52.4885 69.3674 50.8042 68.9937 49.0992 68.9937C47.3942 68.9937 45.7099 69.3674 44.1649 70.0885C42.6199 70.8096 41.2517 71.8606 40.1567 73.1675L21.455 95.4917L20.4225 96.6642" stroke="black" stroke-width="1.5" stroke-linecap="round" stroke-linejoin="round"/>
<path d="M88.0308 60.7192C92.8633 60.7192 96.7808 56.8017 96.7808 51.9692C96.7808 47.1367 92.8633 43.2192 88.0308 43.2192C83.1983 43.2192 79.2808 47.1367 79.2808 51.9692C79.2808 56.8017 83.1983 60.7192 88.0308 60.7192Z" fill="black"/>
</svg>
